<svg width="23" height="23" viewBox="0 0 23 23" fill="none" xmlns="http://www.w3.org/2000/svg">
<path d="M6.55084 1.8717C8.21664 1.8717 9.04954 3.89312 7.87973 5.07228C6.70057 6.24209 4.67915 5.40919 4.67915 3.74339C4.67915 3.24699 4.87635 2.77092 5.22736 2.41991C5.57837 2.0689 6.05444 1.8717 6.55084 1.8717ZM5.14707 6.55091H7.9546C8.451 6.55091 8.92707 6.74811 9.27808 7.09912C9.62909 7.45013 9.82628 7.9262 9.82628 8.4226V13.5697H8.42252V20.5885H4.67915V13.5697H3.27539V8.4226C3.27539 7.9262 3.47259 7.45013 3.82359 7.09912C4.1746 6.74811 4.65067 6.55091 5.14707 6.55091ZM19.6526 7.48676H14.0376V9.35844H19.6526M19.6526 10.2943H16.8451V12.166H19.6526M19.6526 1.8717H14.0376V3.74339H19.6526M19.6526 4.67923H16.8451V6.55091H19.6526M19.6526 13.1018H14.0376V14.9735H19.6526M19.6526 18.7169H14.0376V20.5885H19.6526M19.6526 15.9093H16.8451V17.781H19.6526" fill="black"/>
</svg>
