<svg width="22" height="22" viewBox="0 0 22 22" fill="none" xmlns="http://www.w3.org/2000/svg">
<path d="M2 10.3333C2 6.87658 2 5.14775 3.07433 4.07433C4.14867 3.00092 5.87658 3 9.33333 3H13C16.4567 3 18.1856 3 19.259 4.07433C20.3324 5.14867 20.3333 6.87658 20.3333 10.3333V12.1667C20.3333 15.6234 20.3333 17.3523 19.259 18.4257C18.1847 19.4991 16.4567 19.5 13 19.5H9.33333C5.87658 19.5 4.14775 19.5 3.07433 18.4257C2.00092 17.3513 2 15.6234 2 12.1667V10.3333Z" stroke="black" stroke-width="1.5"/>
<path d="M6.26316 3.38462V2M15.7368 3.38462V2M2 8H20" stroke="black" stroke-width="1.5" stroke-linecap="round"/>
<path d="M17 15.5833C17 15.8264 16.9034 16.0596 16.7315 16.2315C16.5596 16.4034 16.3264 16.5 16.0833 16.5C15.8402 16.5 15.6071 16.4034 15.4352 16.2315C15.2632 16.0596 15.1667 15.8264 15.1667 15.5833C15.1667 15.3402 15.2632 15.1071 15.4352 14.9352C15.6071 14.7632 15.8402 14.6667 16.0833 14.6667C16.3264 14.6667 16.5596 14.7632 16.7315 14.9352C16.9034 15.1071 17 15.3402 17 15.5833ZM17 11.9167C17 12.1598 16.9034 12.3929 16.7315 12.5648C16.5596 12.7368 16.3264 12.8333 16.0833 12.8333C15.8402 12.8333 15.6071 12.7368 15.4352 12.5648C15.2632 12.3929 15.1667 12.1598 15.1667 11.9167C15.1667 11.6736 15.2632 11.4404 15.4352 11.2685C15.6071 11.0966 15.8402 11 16.0833 11C16.3264 11 16.5596 11.0966 16.7315 11.2685C16.9034 11.4404 17 11.6736 17 11.9167ZM12.4167 15.5833C12.4167 15.8264 12.3201 16.0596 12.1482 16.2315C11.9763 16.4034 11.7431 16.5 11.5 16.5C11.2569 16.5 11.0237 16.4034 10.8518 16.2315C10.6799 16.0596 10.5833 15.8264 10.5833 15.5833C10.5833 15.3402 10.6799 15.1071 10.8518 14.9352C11.0237 14.7632 11.2569 14.6667 11.5 14.6667C11.7431 14.6667 11.9763 14.7632 12.1482 14.9352C12.3201 15.1071 12.4167 15.3402 12.4167 15.5833ZM12.4167 11.9167C12.4167 12.1598 12.3201 12.3929 12.1482 12.5648C11.9763 12.7368 11.7431 12.8333 11.5 12.8333C11.2569 12.8333 11.0237 12.7368 10.8518 12.5648C10.6799 12.3929 10.5833 12.1598 10.5833 11.9167C10.5833 11.6736 10.6799 11.4404 10.8518 11.2685C11.0237 11.0966 11.2569 11 11.5 11C11.7431 11 11.9763 11.0966 12.1482 11.2685C12.3201 11.4404 12.4167 11.6736 12.4167 11.9167ZM7.83333 15.5833C7.83333 15.8264 7.73676 16.0596 7.56485 16.2315C7.39294 16.4034 7.15978 16.5 6.91667 16.5C6.67355 16.5 6.44039 16.4034 6.26849 16.2315C6.09658 16.0596 6 15.8264 6 15.5833C6 15.3402 6.09658 15.1071 6.26849 14.9352C6.44039 14.7632 6.67355 14.6667 6.91667 14.6667C7.15978 14.6667 7.39294 14.7632 7.56485 14.9352C7.73676 15.1071 7.83333 15.3402 7.83333 15.5833ZM7.83333 11.9167C7.83333 12.1598 7.73676 12.3929 7.56485 12.5648C7.39294 12.7368 7.15978 12.8333 6.91667 12.8333C6.67355 12.8333 6.44039 12.7368 6.26849 12.5648C6.09658 12.3929 6 12.1598 6 11.9167C6 11.6736 6.09658 11.4404 6.26849 11.2685C6.44039 11.0966 6.67355 11 6.91667 11C7.15978 11 7.39294 11.0966 7.56485 11.2685C7.73676 11.4404 7.83333 11.6736 7.83333 11.9167Z" fill="black"/>
</svg>
