<svg width="23" height="23" viewBox="0 0 23 23" fill="none" xmlns="http://www.w3.org/2000/svg">
<g clip-path="url(#clip0_45_88)">
<path d="M0 10.7602C0 7.23111 -1.11561e-07 5.46612 1.09681 4.37024C2.19361 3.27437 3.95768 3.27344 7.48674 3.27344H11.2301C14.7592 3.27344 16.5242 3.27344 17.62 4.37024C18.7159 5.46705 18.7168 7.23111 18.7168 10.7602V12.6319C18.7168 16.1609 18.7168 17.9259 17.62 19.0218C16.5232 20.1177 14.7592 20.1186 11.2301 20.1186H7.48674C3.95768 20.1186 2.19268 20.1186 1.09681 19.0218C0.000935774 17.925 0 16.1609 0 12.6319V10.7602Z" stroke="black" stroke-width="1.5"/>
<path d="M4.67809 3.27486V1.87109M14.0365 3.27486V1.87109M0.466797 7.95407H18.2478" stroke="black" stroke-width="1.5" stroke-linecap="round"/>
<path d="M14.9742 15.4409C14.9742 15.6891 14.8756 15.9272 14.7001 16.1027C14.5246 16.2782 14.2866 16.3768 14.0384 16.3768C13.7902 16.3768 13.5522 16.2782 13.3767 16.1027C13.2012 15.9272 13.1026 15.6891 13.1026 15.4409C13.1026 15.1927 13.2012 14.9547 13.3767 14.7792C13.5522 14.6037 13.7902 14.5051 14.0384 14.5051C14.2866 14.5051 14.5246 14.6037 14.7001 14.7792C14.8756 14.9547 14.9742 15.1927 14.9742 15.4409ZM14.9742 11.6976C14.9742 11.9458 14.8756 12.1838 14.7001 12.3593C14.5246 12.5348 14.2866 12.6334 14.0384 12.6334C13.7902 12.6334 13.5522 12.5348 13.3767 12.3593C13.2012 12.1838 13.1026 11.9458 13.1026 11.6976C13.1026 11.4494 13.2012 11.2113 13.3767 11.0358C13.5522 10.8603 13.7902 10.7617 14.0384 10.7617C14.2866 10.7617 14.5246 10.8603 14.7001 11.0358C14.8756 11.2113 14.9742 11.4494 14.9742 11.6976ZM10.295 15.4409C10.295 15.6891 10.1964 15.9272 10.0209 16.1027C9.84543 16.2782 9.60739 16.3768 9.35919 16.3768C9.11099 16.3768 8.87296 16.2782 8.69745 16.1027C8.52195 15.9272 8.42335 15.6891 8.42335 15.4409C8.42335 15.1927 8.52195 14.9547 8.69745 14.7792C8.87296 14.6037 9.11099 14.5051 9.35919 14.5051C9.60739 14.5051 9.84543 14.6037 10.0209 14.7792C10.1964 14.9547 10.295 15.1927 10.295 15.4409ZM10.295 11.6976C10.295 11.9458 10.1964 12.1838 10.0209 12.3593C9.84543 12.5348 9.60739 12.6334 9.35919 12.6334C9.11099 12.6334 8.87296 12.5348 8.69745 12.3593C8.52195 12.1838 8.42335 11.9458 8.42335 11.6976C8.42335 11.4494 8.52195 11.2113 8.69745 11.0358C8.87296 10.8603 9.11099 10.7617 9.35919 10.7617C9.60739 10.7617 9.84543 10.8603 10.0209 11.0358C10.1964 11.2113 10.295 11.4494 10.295 11.6976ZM5.61582 15.4409C5.61582 15.6891 5.51723 15.9272 5.34172 16.1027C5.16622 16.2782 4.92818 16.3768 4.67998 16.3768C4.43178 16.3768 4.19375 16.2782 4.01824 16.1027C3.84274 15.9272 3.74414 15.6891 3.74414 15.4409C3.74414 15.1927 3.84274 14.9547 4.01824 14.7792C4.19375 14.6037 4.43178 14.5051 4.67998 14.5051C4.92818 14.5051 5.16622 14.6037 5.34172 14.7792C5.51723 14.9547 5.61582 15.1927 5.61582 15.4409ZM5.61582 11.6976C5.61582 11.9458 5.51723 12.1838 5.34172 12.3593C5.16622 12.5348 4.92818 12.6334 4.67998 12.6334C4.43178 12.6334 4.19375 12.5348 4.01824 12.3593C3.84274 12.1838 3.74414 11.9458 3.74414 11.6976C3.74414 11.4494 3.84274 11.2113 4.01824 11.0358C4.19375 10.8603 4.43178 10.7617 4.67998 10.7617C4.92818 10.7617 5.16622 10.8603 5.34172 11.0358C5.51723 11.2113 5.61582 11.4494 5.61582 11.6976Z" fill="black"/>
</g>
<defs>
<clipPath id="clip0_45_88">
<rect width="22.4602" height="22.4602" fill="white"/>
</clipPath>
</defs>
</svg>
