<svg width="22" height="22" viewBox="0 0 22 22" fill="none" xmlns="http://www.w3.org/2000/svg">
<path d="M10.9978 16.5C8.72216 16.5 6.87278 14.6506 6.87278 12.375C6.87278 10.0994 8.72216 8.25 10.9978 8.25C13.2734 8.25 15.1228 10.0994 15.1228 12.375C15.1228 14.6506 13.2734 16.5 10.9978 16.5ZM10.9978 8.9375C9.10028 8.9375 7.56028 10.4775 7.56028 12.375C7.56028 14.2725 9.10028 15.8125 10.9978 15.8125C12.8953 15.8125 14.4353 14.2725 14.4353 12.375C14.4353 10.4775 12.8953 8.9375 10.9978 8.9375ZM20.279 12.375C20.2011 12.3741 20.1256 12.3473 20.0646 12.2987C20.0036 12.2502 19.9605 12.1827 19.9422 12.1069C19.8734 11.8113 18.189 4.8125 10.9978 4.8125C3.80653 4.8125 2.12216 11.8113 2.05341 12.1069C2.02922 12.1918 1.97343 12.2643 1.8975 12.3094C1.82157 12.3546 1.73125 12.3689 1.64507 12.3496C1.55888 12.3302 1.48337 12.2786 1.43402 12.2054C1.38466 12.1321 1.36521 12.0428 1.37966 11.9556C1.40028 11.88 3.24966 4.125 10.9978 4.125C18.7459 4.125 20.5953 11.8731 20.6159 11.9556C20.6572 12.1412 20.5403 12.3269 20.3547 12.3681C20.3272 12.3681 20.2997 12.375 20.279 12.375Z" fill="black"/>
</svg>
