<svg width="17" height="20" viewBox="0 0 17 20" fill="none" xmlns="http://www.w3.org/2000/svg">
<path d="M3.55084 0.871094C5.21664 0.871094 6.04954 2.89251 4.87973 4.07167C3.70057 5.24148 1.67915 4.40858 1.67915 2.74278C1.67915 2.24638 1.87635 1.77031 2.22736 1.4193C2.57837 1.06829 3.05444 0.871094 3.55084 0.871094ZM2.14707 5.5503H4.9546C5.451 5.5503 5.92707 5.7475 6.27808 6.09851C6.62909 6.44952 6.82628 6.92559 6.82628 7.42199V12.5691H5.42252V19.5879H1.67915V12.5691H0.275391V7.42199C0.275391 6.92559 0.472585 6.44952 0.823594 6.09851C1.1746 5.7475 1.65067 5.5503 2.14707 5.5503ZM16.6526 6.48615H11.0376V8.35783H16.6526M16.6526 9.29367H13.8451V11.1654H16.6526M16.6526 0.871094H11.0376V2.74278H16.6526M16.6526 3.67862H13.8451V5.5503H16.6526M16.6526 12.1012H11.0376V13.9729H16.6526M16.6526 17.7163H11.0376V19.5879H16.6526M16.6526 14.9087H13.8451V16.7804H16.6526" fill="black"/>
</svg>
