<svg width="20" height="19" viewBox="0 0 20 19" fill="none" xmlns="http://www.w3.org/2000/svg">
<path d="M17 2.5252H15.55C15.4301 2.20598 15.2436 1.90901 15 1.6494C14.717 1.37233 14.3702 1.151 13.9823 1.00003C13.5945 0.849055 13.1744 0.771881 12.75 0.773604H7.27C6.8422 0.769387 6.41832 0.845354 6.02681 0.996408C5.63529 1.14746 5.28519 1.37011 5 1.6494C4.74924 1.90761 4.55591 2.20467 4.43 2.5252H3C2.20435 2.5252 1.44129 2.80202 0.87868 3.29475C0.316071 3.78749 0 4.45577 0 5.1526V15.6622C0 16.359 0.316071 17.0273 0.87868 17.5201C1.44129 18.0128 2.20435 18.2896 3 18.2896H17C17.7956 18.2896 18.5587 18.0128 19.1213 17.5201C19.6839 17.0273 20 16.359 20 15.6622V5.1526C20 4.45577 19.6839 3.78749 19.1213 3.29475C18.5587 2.80202 17.7956 2.5252 17 2.5252ZM6.52 2.82298C6.61371 2.72956 6.72906 2.65468 6.85838 2.60334C6.9877 2.552 7.12802 2.52536 7.27 2.5252H12.73C12.872 2.52536 13.0123 2.552 13.1416 2.60334C13.2709 2.65468 13.3863 2.72956 13.48 2.82298C13.5744 2.91494 13.6454 3.02335 13.6885 3.14109C13.7316 3.25883 13.7457 3.38323 13.73 3.5061L13.23 7.0093C13.2005 7.22292 13.0823 7.41956 12.8979 7.5617C12.7134 7.70385 12.4757 7.78156 12.23 7.78001H10.59L11.73 5.67809C11.8224 5.47196 11.8223 5.24282 11.7296 5.0368C11.6369 4.83077 11.4585 4.66315 11.2303 4.56769C11.0022 4.47222 10.7412 4.45599 10.4999 4.52227C10.2587 4.58855 10.055 4.73241 9.93 4.9249L8.37 7.78001H7.77C7.52432 7.78156 7.28659 7.70385 7.10215 7.5617C6.91771 7.41956 6.79948 7.22292 6.77 7.0093L6.27 3.5061C6.25425 3.38323 6.26839 3.25883 6.31148 3.14109C6.35457 3.02335 6.42563 2.91494 6.52 2.82298ZM18 15.6622C18 15.8945 17.8946 16.1172 17.7071 16.2815C17.5196 16.4457 17.2652 16.538 17 16.538H3C2.73478 16.538 2.48043 16.4457 2.29289 16.2815C2.10536 16.1172 2 15.8945 2 15.6622V5.1526C2 4.92033 2.10536 4.69757 2.29289 4.53332C2.48043 4.36908 2.73478 4.2768 3 4.2768H4.37L4.79 7.22825C4.88069 7.86751 5.23638 8.45532 5.78946 8.87997C6.34255 9.30462 7.05449 9.53652 7.79 9.53161H12.25C12.9855 9.53652 13.6975 9.30462 14.2505 8.87997C14.8036 8.45532 15.1593 7.86751 15.25 7.22825L15.63 4.2768H17C17.2652 4.2768 17.5196 4.36908 17.7071 4.53332C17.8946 4.69757 18 4.92033 18 5.1526V15.6622ZM12 13.0348H8C7.73478 13.0348 7.48043 13.1271 7.29289 13.2913C7.10536 13.4556 7 13.6783 7 13.9106C7 14.1429 7.10536 14.3656 7.29289 14.5299C7.48043 14.6941 7.73478 14.7864 8 14.7864H12C12.2652 14.7864 12.5196 14.6941 12.7071 14.5299C12.8946 14.3656 13 14.1429 13 13.9106C13 13.6783 12.8946 13.4556 12.7071 13.2913C12.5196 13.1271 12.2652 13.0348 12 13.0348Z" fill="black"/>
</svg>
